<svg xmlns="http://www.w3.org/2000/svg" xmlns:xlink="http://www.w3.org/1999/xlink" version="1.1" x="0px" y="0px" viewBox="0 0 100 125" style="enable-background:new 0 0 100 100;" xml:space="preserve"><path d="M94.9,56.7c-0.5-4-3.5-7.3-7.4-8.3c-1.7-0.5-3.3-0.4-4.8-0.1c-0.8,0.2-1.6-0.1-2.1-0.6L77.4,44  c-0.5-0.6-0.6-1.4-0.3-2.1c1.2-2.3,1.8-4.9,1.7-7.8C78.3,26.5,72,20.3,64.4,20c-8.6-0.4-15.7,6.5-15.7,15c0,4,1.6,7.7,4.2,10.4  c0.7,0.7,0.9,1.8,0.4,2.7L47,58.6c-0.5,0.9-1.4,1.4-2.4,1.4h0c-0.6,0-1.2,0.1-1.7,0.2c-1.6,0.3-3.3-0.3-4.4-1.4L36,56  c-2.1-2.2-2.7-4.9-1.8-7.3c0.8-2.1,1.2-4.4,0.9-6.9c-0.7-7.2-6.7-12.9-14-13.4c-9.4-0.6-17.2,7.4-16,16.8  c0.8,6.5,5.9,11.9,12.4,12.9c2,0.3,4,0.3,5.9-0.2c2.4-0.5,4.9,0.1,6.5,1.9l3.6,3.9c1.1,1.1,1.4,2.7,1.1,4.2  c-0.2,0.8-0.2,1.6-0.2,2.5c0.2,5.2,4.7,9.5,9.9,9.5c5.6,0.1,10.2-4.4,10.2-10c0-1.9-0.5-3.7-1.5-5.2c-0.5-0.8-0.6-1.8-0.1-2.6  L59.6,51c0.5-0.8,1.3-1.2,2.3-1.1c0.6,0.1,1.2,0.1,1.9,0.1c2.3,0,4.5-0.5,6.5-1.5c0.8-0.4,1.7-0.2,2.3,0.4l2.8,3.1  c0.5,0.6,0.7,1.5,0.4,2.2c-0.6,1.6-0.9,3.4-0.6,5.3c0.7,4.4,4.4,7.9,8.9,8.4C90.4,68.6,95.8,63.2,94.9,56.7z M19.8,55.7  c-6.6,0-12-5.4-12-12s5.4-12,12-12c6.6,0,12,5.4,12,12S26.4,55.7,19.8,55.7z M63.6,47.3c-6.6,0-12-5.4-12-12c0-6.6,5.4-12,12-12  s12,5.4,12,12C75.6,42,70.3,47.3,63.6,47.3z"/><text x="0" y="115" fill="#000000" font-size="5px" font-weight="bold" font-family="'Helvetica Neue', Helvetica, Arial-Unicode, Arial, Sans-serif">Created by Kirby Wu</text><text x="0" y="120" fill="#000000" font-size="5px" font-weight="bold" font-family="'Helvetica Neue', Helvetica, Arial-Unicode, Arial, Sans-serif">from the Noun Project</text></svg>